<svg width="408" height="94" viewBox="0 0 408 94" fill="none" xmlns="http://www.w3.org/2000/svg">
<path d="M55.9481 69C54.0815 69 52.6681 68.9733 51.7081 68.92C50.7748 68.8667 50.0815 68.7333 49.6281 68.52L49.1481 64.64C49.4148 64.96 49.6548 65.4133 49.8681 66C50.1081 66.5867 50.2948 67.24 50.4281 67.96C50.5615 68.6533 50.6281 69.32 50.6281 69.96C50.6281 75.0267 49.5748 79.28 47.4681 82.72C45.3615 86.1867 42.1481 88.8 37.8281 90.56C33.5081 92.3467 28.0681 93.24 21.5081 93.24C17.0281 93.24 13.2281 92.4 10.1081 90.72C6.98813 89.0667 4.62813 86.64 3.02813 83.44C1.45479 80.2667 0.668125 76.4267 0.668125 71.92C0.668125 68.48 1.04146 65 1.78813 61.48C2.53479 57.96 3.61479 54.6533 5.02813 51.56H6.02813C5.33479 53.5867 4.82813 55.64 4.50813 57.72C4.21479 59.8 4.06813 61.7867 4.06813 63.68C4.06813 66.7467 4.80146 69.36 6.26813 71.52C7.73479 73.7067 9.88146 75.36 12.7081 76.48C15.5348 77.6267 18.9615 78.2 22.9881 78.2C28.9881 78.2 33.9215 77.7733 37.7881 76.92C41.6815 76.0667 44.4948 75.1067 46.2281 74.04C47.9881 72.9733 48.8681 72.1067 48.8681 71.44C48.8681 70.7733 48.1481 70.2133 46.7081 69.76C45.2948 69.3067 43.5481 68.9467 41.4681 68.68C39.4148 68.4133 36.6948 68.1067 33.3081 67.76C30.0281 67.4133 27.5215 67.1333 25.7881 66.92C24.0815 66.7067 22.6548 66.4267 21.5081 66.08V65.6C23.0281 63.4667 24.4015 61.3867 25.6281 59.36C26.8815 57.3067 27.9348 55.1867 28.7881 53C31.4815 53.4533 34.6815 53.7333 38.3881 53.84C42.0948 53.92 48.7615 53.96 58.3881 53.96L55.9481 69ZM77.8063 48.64C77.8063 53.3067 77.1129 57.12 75.7263 60.08C74.3663 63.04 72.0863 65.2667 68.8863 66.76C65.7129 68.2533 61.4063 69 55.9662 69C55.1396 69 54.5396 68.6 54.1662 67.8C53.7662 67 53.5662 65.7867 53.5662 64.16C53.5662 60.8 53.9929 58.2667 54.8462 56.56C55.6996 54.8267 56.8862 53.96 58.4062 53.96C61.2596 53.96 64.0596 53.8 66.8063 53.48C69.5796 53.16 71.8329 52.7333 73.5663 52.2C75.2996 51.6667 76.1663 51.12 76.1663 50.56C76.1663 50.08 75.6329 49.24 74.5663 48.04C73.4996 46.84 72.1396 45.5333 70.4863 44.12C68.8596 42.7067 67.2596 41.4667 65.6863 40.4C66.5929 39.4133 67.6196 37.6933 68.7663 35.24C69.9396 32.76 71.0063 30.28 71.9663 27.8H72.4863C72.5929 28.1467 72.8596 28.76 73.2863 29.64C74.5663 32.52 75.6329 35.4533 76.4863 38.44C77.3663 41.4267 77.8063 44.8267 77.8063 48.64ZM67.6063 23.92C66.8596 22.9067 65.6729 21.7333 64.0463 20.4C62.4196 19.0667 61.0196 18.1467 59.8463 17.64V17.12L66.1663 9.36C67.6329 10.08 69.1796 11.1733 70.8063 12.64C72.4596 14.08 73.6596 15.4133 74.4063 16.64L67.6063 23.92ZM106.223 69C102.57 69 99.6631 68.4267 97.5031 67.28C95.3431 66.1333 93.7165 64.2 92.6231 61.48C91.5565 58.76 90.9165 54.96 90.7031 50.08C90.3831 42.08 90.0498 35.8533 89.7031 31.4C89.3831 26.9467 89.0098 23.48 88.5831 21C88.1565 18.52 87.5698 15.7733 86.8231 12.76C88.4231 11.16 90.1031 9.2 91.8631 6.88C93.6231 4.53333 95.1831 2.29333 96.5431 0.159997H97.0231C97.0231 1.14666 97.0765 3 97.1831 5.72C97.3965 9.50666 97.5031 13.3067 97.5031 17.12C97.5031 19.4933 97.4231 23.56 97.2631 29.32C97.1031 35.6133 97.0231 40.44 97.0231 43.8C97.0231 46.0933 97.4231 47.9867 98.2231 49.48C99.0231 50.9733 100.276 52.0933 101.983 52.84C103.716 53.5867 105.943 53.96 108.663 53.96L106.223 69ZM132.401 42.8C130.267 42.8 128.427 43.1733 126.881 43.92C125.361 44.64 124.134 45.7333 123.201 47.2C124.214 48.56 125.774 49.76 127.881 50.8C129.987 51.8133 132.214 52.6 134.561 53.16C136.907 53.6933 138.934 53.96 140.641 53.96C142.321 53.96 143.547 53.84 144.321 53.6C145.094 53.36 145.481 53 145.481 52.52C145.481 51.32 144.907 49.9467 143.761 48.4C142.614 46.8533 141.041 45.5333 139.041 44.44C137.041 43.3467 134.827 42.8 132.401 42.8ZM135.321 32.16C137.827 32.16 139.987 33.0133 141.801 34.72C143.641 36.4267 145.041 38.72 146.001 41.6C146.961 44.4533 147.441 47.6133 147.441 51.08C147.441 54.6533 147.027 57.8 146.201 60.52C145.374 63.24 144.281 65.3333 142.921 66.8C141.587 68.2667 140.187 69 138.721 69C135.307 69 132.107 68.4933 129.121 67.48C126.161 66.44 123.787 65 122.001 63.16C120.214 61.32 119.321 59.2267 119.321 56.88C119.321 55.7333 119.414 54.5067 119.601 53.2C119.787 51.8933 120.014 50.6933 120.281 49.6H119.801C119.614 50.0533 119.414 50.6667 119.201 51.44C119.014 52.2133 118.827 53.0133 118.641 53.84C118.001 56.7733 117.294 59.2667 116.521 61.32C115.774 63.3733 114.561 65.1733 112.881 66.72C111.227 68.24 109.001 69 106.201 69C105.454 69 104.867 68.6133 104.441 67.84C104.014 67.04 103.801 65.8133 103.801 64.16C103.801 60.8267 104.241 58.2933 105.121 56.56C105.974 54.8267 107.147 53.96 108.641 53.96C110.614 53.96 112.214 53.76 113.441 53.36C114.694 52.96 115.827 52.1467 116.841 50.92C117.854 49.6667 118.841 47.7733 119.801 45.24L121.721 46.68C123.534 42.9467 125.147 40.04 126.561 37.96C128.001 35.8533 129.401 34.36 130.761 33.48C132.147 32.6 133.667 32.16 135.321 32.16ZM152.256 90.8C150.23 90.8 148.323 90.4667 146.536 89.8C144.75 89.16 142.67 88.24 140.296 87.04C139.496 86.64 138.696 86.2533 137.896 85.88C137.096 85.5067 136.39 85.2133 135.776 85V84.52C140.576 83.4267 145.603 81.5733 150.856 78.96C156.136 76.3467 160.55 73.6267 164.096 70.8C167.67 67.9733 169.456 65.76 169.456 64.16C169.456 63.2 168.47 61.76 166.496 59.84C164.523 57.92 161.55 55.48 157.576 52.52C158.616 50.9733 159.75 48.9333 160.976 46.4C162.23 43.8667 163.203 41.5467 163.896 39.44H164.376C164.536 39.84 164.883 40.5733 165.416 41.64C166.403 43.6133 167.243 45.4533 167.936 47.16C168.656 48.8667 169.296 50.8667 169.856 53.16C170.416 55.4533 170.696 57.8267 170.696 60.28C170.696 66.7067 169.883 72.2133 168.256 76.8C166.63 81.4133 164.416 84.8933 161.616 87.24C158.843 89.6133 155.723 90.8 152.256 90.8ZM163.416 34.56C162.67 33.5467 161.483 32.3733 159.856 31.04C158.23 29.7067 156.83 28.7867 155.656 28.28V27.76L161.976 20C163.443 20.72 164.99 21.8133 166.616 23.28C168.27 24.72 169.47 26.0533 170.216 27.28L163.416 34.56Z" fill="#0091C1"/>
<path d="M249.006 69C247.46 69 246.073 68.68 244.846 68.04C243.62 67.4 242.42 66.2667 241.246 64.64L242.206 60.28C242.206 66.9467 241.046 72.6 238.726 77.24C236.433 81.9067 233.18 85.4133 228.966 87.76C224.753 90.1333 219.793 91.32 214.086 91.32C209.606 91.32 205.806 90.48 202.686 88.8C199.566 87.1467 197.206 84.72 195.606 81.52C194.033 78.3467 193.246 74.4933 193.246 69.96C193.246 62.7333 194.86 55.6267 198.086 48.64H199.086C198.18 51.0933 197.54 53.4 197.166 55.56C196.82 57.72 196.646 59.7733 196.646 61.72C196.646 64.7867 197.38 67.4 198.846 69.56C200.313 71.7467 202.46 73.4133 205.286 74.56C208.14 75.7067 211.566 76.28 215.566 76.28C220.313 76.28 224.58 75.6133 228.366 74.28C232.18 72.9733 235.153 71.3333 237.286 69.36C239.42 67.4133 240.486 65.52 240.486 63.68C240.486 62.9333 239.82 61.36 238.486 58.96C237.18 56.5333 235.353 53.5733 233.006 50.08C233.726 49.1467 234.606 47.5333 235.646 45.24C236.686 42.92 237.58 40.6533 238.326 38.44H238.846C240.1 42.52 241.38 45.6933 242.686 47.96C243.993 50.2267 245.34 51.8 246.726 52.68C248.14 53.5333 249.713 53.96 251.446 53.96L249.006 69ZM216.046 57.36C215.3 56.3467 214.113 55.1733 212.486 53.84C210.86 52.5067 209.46 51.5867 208.286 51.08V50.56L214.606 42.8C216.073 43.52 217.62 44.6133 219.246 46.08C220.9 47.52 222.1 48.8533 222.846 50.08L216.046 57.36ZM311.573 69C309.013 69 306.88 68.5467 305.173 67.64C303.493 66.7333 302.28 65.3467 301.533 63.48C300.786 61.6133 300.573 59.2533 300.893 56.4H300.413C299.933 60.7733 298.92 63.9733 297.373 66C295.826 68 293.613 69 290.733 69C288.92 69 287.413 68.5467 286.213 67.64C285.04 66.7333 284.2 65.3467 283.693 63.48C283.213 61.6133 283.133 59.2533 283.453 56.4H282.973C282.52 60.5867 281.226 63.7333 279.093 65.84C276.986 67.9467 274.4 69 271.333 69C268.293 69 266.066 67.96 264.653 65.88C263.24 63.7733 262.88 60.6133 263.573 56.4H263.093C262.373 60.6933 260.826 63.8667 258.453 65.92C256.106 67.9733 252.96 69 249.013 69C248.266 69 247.68 68.6133 247.253 67.84C246.826 67.04 246.613 65.8133 246.613 64.16C246.613 60.8267 247.053 58.2933 247.933 56.56C248.786 54.8267 249.96 53.96 251.453 53.96C254.333 53.96 256.666 53.68 258.453 53.12C260.266 52.56 261.733 51.5467 262.853 50.08C264 48.6133 264.893 46.52 265.533 43.8H266.493C266.493 43.9067 266.48 44.04 266.453 44.2C266.426 44.3333 266.4 44.5067 266.373 44.72C266.16 46.24 265.906 48.08 265.613 50.24C265.32 52.3733 265.12 53.7733 265.013 54.44L264.533 51.56C265.306 52.3067 266.426 52.8933 267.893 53.32C269.36 53.7467 271.146 53.96 273.253 53.96C275.733 53.96 277.72 53.6533 279.213 53.04C280.733 52.4 281.933 51.36 282.813 49.92C283.72 48.4533 284.413 46.4133 284.893 43.8H285.893C285.893 43.9067 285.88 44.04 285.853 44.2C285.826 44.3333 285.8 44.5067 285.773 44.72C285.56 46.24 285.306 48.08 285.013 50.24C284.72 52.3733 284.52 53.7733 284.413 54.44V51.56C285.186 52.3067 286.186 52.8933 287.413 53.32C288.64 53.7467 290.066 53.96 291.693 53.96C293.08 53.96 294.333 53.7867 295.453 53.44C296.6 53.0667 297.546 52.5867 298.293 52C299.04 51.4133 299.586 50.7733 299.933 50.08C299.933 49.0133 299.76 47.6267 299.413 45.92C299.093 44.1867 298.786 42.8267 298.493 41.84C298.946 41.68 299.48 41.4267 300.093 41.08C300.706 40.7067 301.306 40.32 301.893 39.92V46.68C301.893 48.84 302.84 50.6 304.733 51.96C306.626 53.2933 309.72 53.96 314.013 53.96L311.573 69ZM364.951 69C361.325 69 358.538 68.6267 356.591 67.88C354.645 67.1067 353.285 65.8933 352.511 64.24C351.738 62.5867 351.351 60.2933 351.351 57.36C351.351 56.5067 351.391 55.48 351.471 54.28C351.578 53.08 351.698 51.84 351.831 50.56L352.631 50.28C353.005 51.32 353.751 52.1067 354.871 52.64C355.991 53.1733 357.511 53.5333 359.431 53.72C361.378 53.88 364.018 53.96 367.351 53.96H368.351L365.911 69H364.951ZM329.071 29.72C330.805 29.72 332.738 30.04 334.871 30.68C337.031 31.32 339.965 32.32 343.671 33.68C346.818 34.8533 349.471 35.8133 351.631 36.56C353.818 37.28 356.165 37.92 358.671 38.48C361.205 39.04 363.685 39.36 366.111 39.44V39.92C365.311 40.64 364.205 41.9867 362.791 43.96C361.405 45.9333 360.338 47.6533 359.591 49.12C357.565 49.1733 355.698 49.5467 353.991 50.24C352.285 50.9067 350.725 51.7333 349.311 52.72C347.898 53.68 346.125 55.0267 343.991 56.76C340.845 59.32 337.978 61.4133 335.391 63.04C332.805 64.6667 329.525 66.0667 325.551 67.24C321.605 68.4133 316.951 69 311.591 69C310.765 69 310.165 68.6 309.791 67.8C309.391 67 309.191 65.7867 309.191 64.16C309.191 60.8 309.618 58.2667 310.471 56.56C311.325 54.8267 312.511 53.96 314.031 53.96C321.391 53.96 327.405 53.7333 332.071 53.28C336.765 52.8267 340.365 52.2933 342.871 51.68C345.405 51.04 348.058 50.2133 350.831 49.2C351.338 49.0133 351.831 48.84 352.311 48.68C352.791 48.4933 353.285 48.32 353.791 48.16V47.68C351.045 47.1733 348.525 46.6 346.231 45.96C343.938 45.32 341.245 44.5067 338.151 43.52C335.325 42.6133 333.071 41.9467 331.391 41.52C329.711 41.0933 328.125 40.88 326.631 40.88C324.658 40.88 322.938 41.2667 321.471 42.04C320.031 42.8133 318.845 44.04 317.911 45.72H317.431C318.525 41.3467 319.645 38 320.791 35.68C321.965 33.36 323.191 31.7867 324.471 30.96C325.778 30.1333 327.311 29.72 329.071 29.72ZM392.088 42.8C389.955 42.8 388.115 43.1733 386.568 43.92C385.048 44.64 383.821 45.7333 382.888 47.2C383.901 48.56 385.461 49.76 387.568 50.8C389.675 51.8133 391.901 52.6 394.248 53.16C396.595 53.6933 398.621 53.96 400.328 53.96C402.008 53.96 403.235 53.84 404.008 53.6C404.781 53.36 405.168 53 405.168 52.52C405.168 51.32 404.595 49.9467 403.448 48.4C402.301 46.8533 400.728 45.5333 398.728 44.44C396.728 43.3467 394.515 42.8 392.088 42.8ZM395.008 32.16C397.515 32.16 399.675 33.0133 401.488 34.72C403.328 36.4267 404.728 38.72 405.688 41.6C406.648 44.4533 407.128 47.6133 407.128 51.08C407.128 54.6533 406.715 57.8 405.888 60.52C405.061 63.24 403.968 65.3333 402.608 66.8C401.275 68.2667 399.875 69 398.408 69C394.995 69 391.795 68.4933 388.808 67.48C385.848 66.44 383.475 65 381.688 63.16C379.901 61.32 379.008 59.2267 379.008 56.88C379.008 55.7333 379.101 54.5067 379.288 53.2C379.475 51.8933 379.701 50.6933 379.968 49.6H379.488C379.301 50.0533 379.101 50.6667 378.888 51.44C378.701 52.2133 378.515 53.0133 378.328 53.84C377.688 56.7733 376.981 59.2667 376.208 61.32C375.461 63.3733 374.248 65.1733 372.568 66.72C370.915 68.24 368.688 69 365.888 69C365.141 69 364.555 68.6133 364.128 67.84C363.701 67.04 363.488 65.8133 363.488 64.16C363.488 60.8267 363.928 58.2933 364.808 56.56C365.661 54.8267 366.835 53.96 368.328 53.96C370.301 53.96 371.901 53.76 373.128 53.36C374.381 52.96 375.515 52.1467 376.528 50.92C377.541 49.6667 378.528 47.7733 379.488 45.24L381.408 46.68C383.221 42.9467 384.835 40.04 386.248 37.96C387.688 35.8533 389.088 34.36 390.448 33.48C391.835 32.6 393.355 32.16 395.008 32.16Z" fill="#494949"/>
</svg>
